<svg xmlns="http://www.w3.org/2000/svg" viewBox="0 0 680 680">

  <circle cx="340" cy="340" r="300" fill="#6B4FBB"/>

  <!-- Edges -->
  <line x1="340" y1="245" x2="220" y2="370" stroke="rgba(255,255,255,0.3)" stroke-width="3" stroke-linecap="round"/>
  <line x1="340" y1="245" x2="460" y2="370" stroke="rgba(255,255,255,0.3)" stroke-width="3" stroke-linecap="round"/>
  <line x1="220" y1="370" x2="280" y2="490" stroke="rgba(255,255,255,0.3)" stroke-width="3" stroke-linecap="round"/>
  <line x1="460" y1="370" x2="400" y2="490" stroke="rgba(255,255,255,0.3)" stroke-width="3" stroke-linecap="round"/>
  <line x1="280" y1="490" x2="400" y2="490" stroke="rgba(255,255,255,0.3)" stroke-width="3" stroke-linecap="round"/>
  <line x1="220" y1="370" x2="460" y2="370" stroke="rgba(255,255,255,0.3)" stroke-width="3" stroke-linecap="round"/>

  <!-- Highlighted edge -->
  <line x1="340" y1="245" x2="460" y2="370" stroke="rgba(255,255,255,0.6)" stroke-width="3" stroke-linecap="round"/>

  <!-- Signal wave -->
  <path d="M 340 245 Q 362 268 370 280 Q 378 292 392 285 Q 406 278 418 295 Q 430 312 440 325 L 460 370"
        fill="none" stroke="white" stroke-width="3" stroke-linecap="round" stroke-linejoin="round"/>

  <!-- Nodes -->
  <circle cx="340" cy="245" r="18" fill="white"/>
  <circle cx="220" cy="370" r="16" fill="rgba(255,255,255,0.55)"/>
  <circle cx="460" cy="370" r="20" fill="white"/>
  <circle cx="280" cy="490" r="16" fill="rgba(255,255,255,0.55)"/>
  <circle cx="400" cy="490" r="16" fill="rgba(255,255,255,0.55)"/>

  <!-- Signal dot -->
  <circle cx="460" cy="370" r="9" fill="#6B4FBB"/>

</svg>
